HIERARCHY
ROOT mixamorig:Hips
{
	OFFSET 0.000000 201.639420 0.000000
	CHANNELS 6 Xposition Yposition Zposition Xrotation Yrotation Zrotation
	JOINT mixamorig:Spine
	{
		OFFSET 0.006200 19.524994 -2.481800
		CHANNELS 3 Xrotation Yrotation Zrotation
		JOINT mixamorig:Spine1
		{
			OFFSET -0.000900 22.835007 -2.825400
			CHANNELS 3 Xrotation Yrotation Zrotation
			JOINT mixamorig:Spine2
			{
				OFFSET -0.020600 26.552490 -3.193300
				CHANNELS 3 Xrotation Yrotation Zrotation
				JOINT mixamorig:Neck
				{
					OFFSET -0.060000 30.701813 1.352200
					CHANNELS 3 Xrotation Yrotation Zrotation
					JOINT mixamorig:Head
					{
						OFFSET -0.087200 22.547607 3.670900
						CHANNELS 3 Xrotation Yrotation Zrotation
						JOINT mixamorig:HeadTop_End
						{
							OFFSET -0.830600 40.355194 7.893500
							CHANNELS 3 Xrotation Yrotation Zrotation
							End Site
							{
								OFFSET 0.000000 30.592346 0.000000
							}
						}
						JOINT mixamorig:RightEye
						{
							OFFSET -6.302100 18.118591 16.197100
							CHANNELS 3 Xrotation Yrotation Zrotation
							End Site
							{
								OFFSET 0.000000 30.592346 0.000000
							}
						}
						JOINT mixamorig:LeftEye
						{
							OFFSET 6.741500 18.382690 16.401899
							CHANNELS 3 Xrotation Yrotation Zrotation
							End Site
							{
								OFFSET 0.000000 30.592346 0.000000
							}
						}
					}
				}
				JOINT mixamorig:LeftShoulder
				{
					OFFSET 11.924900 18.230499 1.425400
					CHANNELS 3 Xrotation Yrotation Zrotation
					JOINT mixamorig:LeftArm
					{
						OFFSET 25.435989 -0.697632 -5.229300
						CHANNELS 3 Xrotation Yrotation Zrotation
						JOINT mixamorig:LeftForeArm
						{
							OFFSET 54.684776 0.000000 0.000000
							CHANNELS 3 Xrotation Yrotation Zrotation
							JOINT mixamorig:LeftHand
							{
								OFFSET 55.098175 0.000000 0.000000
								CHANNELS 3 Xrotation Yrotation Zrotation
								JOINT mixamorig:LeftHandMiddle1
								{
									OFFSET 23.369751 0.000000 0.000000
									CHANNELS 3 Xrotation Yrotation Zrotation
									JOINT mixamorig:LeftHandMiddle2
									{
										OFFSET 6.378677 0.000000 0.000000
										CHANNELS 3 Xrotation Yrotation Zrotation
										JOINT mixamorig:LeftHandMiddle3
										{
											OFFSET 6.148331 0.000000 0.000000
											CHANNELS 3 Xrotation Yrotation Zrotation
											JOINT mixamorig:LeftHandMiddle4
											{
												OFFSET 6.582504 0.000000 0.000000
												CHANNELS 3 Xrotation Yrotation Zrotation
												End Site
												{
													OFFSET -1.168900 6.395691 1.028606
												}
											}
										}
									}
								}
								JOINT mixamorig:LeftHandThumb1
								{
									OFFSET 7.235672 -3.848206 5.434273
									CHANNELS 3 Xrotation Yrotation Zrotation
									JOINT mixamorig:LeftHandThumb2
									{
										OFFSET 6.568451 -3.792297 3.792300
										CHANNELS 3 Xrotation Yrotation Zrotation
										JOINT mixamorig:LeftHandThumb3
										{
											OFFSET 6.063080 -3.500519 3.500518
											CHANNELS 3 Xrotation Yrotation Zrotation
											JOINT mixamorig:LeftHandThumb4
											{
												OFFSET 4.793182 -2.767334 2.767349
												CHANNELS 3 Xrotation Yrotation Zrotation
												End Site
												{
													OFFSET 0.101639 6.054260 1.275483
												}
											}
										}
									}
								}
								JOINT mixamorig:LeftHandIndex1
								{
									OFFSET 23.101074 -0.309540 4.992809
									CHANNELS 3 Xrotation Yrotation Zrotation
									JOINT mixamorig:LeftHandIndex2
									{
										OFFSET 6.226883 0.000000 0.000000
										CHANNELS 3 Xrotation Yrotation Zrotation
										JOINT mixamorig:LeftHandIndex3
										{
											OFFSET 6.094330 0.000000 0.000000
											CHANNELS 3 Xrotation Yrotation Zrotation
											JOINT mixamorig:LeftHandIndex4
											{
												OFFSET 5.482605 0.000000 0.000000
												CHANNELS 3 Xrotation Yrotation Zrotation
												End Site
												{
													OFFSET -1.427902 5.233032 0.797164
												}
											}
										}
									}
								}
								JOINT mixamorig:LeftHandRing1
								{
									OFFSET 22.299240 0.021149 -3.964172
									CHANNELS 3 Xrotation Yrotation Zrotation
									JOINT mixamorig:LeftHandRing2
									{
										OFFSET 6.321869 0.000000 0.000000
										CHANNELS 3 Xrotation Yrotation Zrotation
										JOINT mixamorig:LeftHandRing3
										{
											OFFSET 5.899796 0.000000 0.000000
											CHANNELS 3 Xrotation Yrotation Zrotation
											JOINT mixamorig:LeftHandRing4
											{
												OFFSET 6.517899 0.000000 0.000000
												CHANNELS 3 Xrotation Yrotation Zrotation
												End Site
												{
													OFFSET -1.637299 6.232208 0.980890
												}
											}
										}
									}
								}
								JOINT mixamorig:LeftHandPinky1
								{
									OFFSET 20.463791 -0.302338 -8.562233
									CHANNELS 3 Xrotation Yrotation Zrotation
									JOINT mixamorig:LeftHandPinky2
									{
										OFFSET 6.908646 0.000000 0.000000
										CHANNELS 3 Xrotation Yrotation Zrotation
										JOINT mixamorig:LeftHandPinky3
										{
											OFFSET 4.622849 0.000000 0.000000
											CHANNELS 3 Xrotation Yrotation Zrotation
											JOINT mixamorig:LeftHandPinky4
											{
												OFFSET 5.216080 0.000000 0.000000
												CHANNELS 3 Xrotation Yrotation Zrotation
												End Site
												{
													OFFSET -0.606308 5.116241 0.814926
												}
											}
										}
									}
								}
							}
						}
					}
				}
				JOINT mixamorig:RightShoulder
				{
					OFFSET -12.001300 18.284088 1.348900
					CHANNELS 3 Xrotation Yrotation Zrotation
					JOINT mixamorig:RightArm
					{
						OFFSET -25.308500 -0.751312 -5.164599
						CHANNELS 3 Xrotation Yrotation Zrotation
						JOINT mixamorig:RightForeArm
						{
							OFFSET -54.684429 0.000000 0.000000
							CHANNELS 3 Xrotation Yrotation Zrotation
							JOINT mixamorig:RightHand
							{
								OFFSET -55.150291 0.000000 0.000000
								CHANNELS 3 Xrotation Yrotation Zrotation
								JOINT mixamorig:RightHandMiddle1
								{
									OFFSET -23.317566 0.000000 0.000000
									CHANNELS 3 Xrotation Yrotation Zrotation
									JOINT mixamorig:RightHandMiddle2
									{
										OFFSET -6.378403 0.000000 0.000000
										CHANNELS 3 Xrotation Yrotation Zrotation
										JOINT mixamorig:RightHandMiddle3
										{
											OFFSET -6.148193 0.000000 0.000000
											CHANNELS 3 Xrotation Yrotation Zrotation
											JOINT mixamorig:RightHandMiddle4
											{
												OFFSET -6.583389 0.000000 0.000000
												CHANNELS 3 Xrotation Yrotation Zrotation
												End Site
												{
													OFFSET 1.171692 6.395905 1.029786
												}
											}
										}
									}
								}
								JOINT mixamorig:RightHandThumb1
								{
									OFFSET -7.190521 -3.860474 5.435846
									CHANNELS 3 Xrotation Yrotation Zrotation
									JOINT mixamorig:RightHandThumb2
									{
										OFFSET -6.567429 -3.791718 3.791708
										CHANNELS 3 Xrotation Yrotation Zrotation
										JOINT mixamorig:RightHandThumb3
										{
											OFFSET -6.062469 -3.500153 3.500166
											CHANNELS 3 Xrotation Yrotation Zrotation
											JOINT mixamorig:RightHandThumb4
											{
												OFFSET -4.792618 -2.767029 2.767022
												CHANNELS 3 Xrotation Yrotation Zrotation
												End Site
												{
													OFFSET -0.100327 6.053253 1.276754
												}
											}
										}
									}
								}
								JOINT mixamorig:RightHandIndex1
								{
									OFFSET -23.048981 -0.310791 4.992554
									CHANNELS 3 Xrotation Yrotation Zrotation
									JOINT mixamorig:RightHandIndex2
									{
										OFFSET -6.227539 0.000000 0.000000
										CHANNELS 3 Xrotation Yrotation Zrotation
										JOINT mixamorig:RightHandIndex3
										{
											OFFSET -6.095047 0.000000 0.000000
											CHANNELS 3 Xrotation Yrotation Zrotation
											JOINT mixamorig:RightHandIndex4
											{
												OFFSET -5.484772 0.000000 0.000000
												CHANNELS 3 Xrotation Yrotation Zrotation
												End Site
												{
													OFFSET 1.420593 5.237305 0.797056
												}
											}
										}
									}
								}
								JOINT mixamorig:RightHandRing1
								{
									OFFSET -22.246323 0.020569 -3.963762
									CHANNELS 3 Xrotation Yrotation Zrotation
									JOINT mixamorig:RightHandRing2
									{
										OFFSET -6.322128 0.000000 0.000000
										CHANNELS 3 Xrotation Yrotation Zrotation
										JOINT mixamorig:RightHandRing3
										{
											OFFSET -5.900024 0.000000 0.000000
											CHANNELS 3 Xrotation Yrotation Zrotation
											JOINT mixamorig:RightHandRing4
											{
												OFFSET -6.518356 0.000000 0.000000
												CHANNELS 3 Xrotation Yrotation Zrotation
												End Site
												{
													OFFSET 1.636398 6.232697 0.982186
												}
											}
										}
									}
								}
								JOINT mixamorig:RightHandPinky1
								{
									OFFSET -20.411011 -0.303314 -8.561701
									CHANNELS 3 Xrotation Yrotation Zrotation
									JOINT mixamorig:RightHandPinky2
									{
										OFFSET -6.907349 0.000000 0.000000
										CHANNELS 3 Xrotation Yrotation Zrotation
										JOINT mixamorig:RightHandPinky3
										{
											OFFSET -4.623840 0.000000 0.000000
											CHANNELS 3 Xrotation Yrotation Zrotation
											JOINT mixamorig:RightHandPinky4
											{
												OFFSET -5.218353 0.000000 0.000000
												CHANNELS 3 Xrotation Yrotation Zrotation
												End Site
												{
													OFFSET 0.602097 5.118835 0.816273
												}
											}
										}
									}
								}
							}
						}
					}
				}
			}
		}
	}
	JOINT mixamorig:LeftUpLeg
	{
		OFFSET 18.168400 -13.561905 -0.039000
		CHANNELS 3 Xrotation Yrotation Zrotation
		JOINT mixamorig:LeftLeg
		{
			OFFSET 0.577358 -80.825211 -3.695000
			CHANNELS 3 Xrotation Yrotation Zrotation
			JOINT mixamorig:LeftFoot
			{
				OFFSET -0.577356 -83.370262 -6.520700
				CHANNELS 3 Xrotation Yrotation Zrotation
				JOINT mixamorig:LeftToeBase
				{
					OFFSET 0.750401 -20.798306 25.135401
					CHANNELS 3 Xrotation Yrotation Zrotation
					JOINT mixamorig:LeftToe_End
					{
						OFFSET -0.000500 0.001200 19.917799
						CHANNELS 3 Xrotation Yrotation Zrotation
						End Site
						{
							OFFSET 0.000000 19.917805 0.000000
						}
					}
				}
			}
		}
	}
	JOINT mixamorig:RightUpLeg
	{
		OFFSET -18.162500 -13.585098 -0.041000
		CHANNELS 3 Xrotation Yrotation Zrotation
		JOINT mixamorig:RightLeg
		{
			OFFSET -0.595024 -80.945297 -3.631900
			CHANNELS 3 Xrotation Yrotation Zrotation
			JOINT mixamorig:RightFoot
			{
				OFFSET 0.595024 -83.218193 -6.561200
				CHANNELS 3 Xrotation Yrotation Zrotation
				JOINT mixamorig:RightToeBase
				{
					OFFSET -0.753601 -20.807106 25.115000
					CHANNELS 3 Xrotation Yrotation Zrotation
					JOINT mixamorig:RightToe_End
					{
						OFFSET 0.000299 0.001700 19.918200
						CHANNELS 3 Xrotation Yrotation Zrotation
						End Site
						{
							OFFSET 0.000000 19.918203 0.000000
						}
					}
				}
			}
		}
	}
}
MOTION
Frames: 5
Frame Time: 0.033333
-0.105902 191.480255 0.334980 -0.955127 -1.651998 -2.010599 1.499138 -0.262731 -0.019208 1.933456 -1.619292 0.136752 1.933006 -1.611394 0.183355 -0.225434 -0.476897 0.207852 3.908184 -2.735961 3.644721 0.000001 -0.000001 0.000000 0.000001 -0.000001 0.000000 0.000001 -0.000001 0.000000 0.377596 2.129946 -5.772620 8.120227 -13.497916 -67.053422 -0.000003 -21.594500 -0.000006 5.761292 -0.197574 0.937367 0.613809 2.894873 -20.289951 0.757671 3.145005 -27.084366 0.031403 0.658144 -5.462037 -0.000004 -0.000001 0.000000 -3.088061 3.827102 13.001520 3.289640 20.984192 0.561551 -0.974018 0.891875 2.663051 -0.000001 0.000001 0.000001 0.152993 1.446306 -12.163740 1.101834 3.741318 -32.810108 0.030977 0.653726 -5.425359 -0.000000 0.000001 -0.000002 1.984533 5.258295 -30.245761 0.439183 2.424064 -20.535488 0.030092 0.644292 -5.346813 -0.000000 0.000001 0.000003 5.095953 8.800814 -38.271145 0.269868 -2.140927 -16.582364 0.021088 0.539538 -4.475453 0.000001 -0.000004 0.000000 0.651819 6.320871 7.980427 -0.851023 2.679529 69.787041 0.000005 25.075995 -0.000034 0.723863 -4.209885 -4.460144 0.466427 -2.630161 28.512309 0.990972 -3.582626 30.914297 -0.639846 0.166543 -1.249987 0.000000 -0.000000 -0.000001 5.741519 -13.408657 1.116191 4.140277 -22.827551 0.227584 -1.926825 1.281015 -2.297850 0.000000 0.000001 -0.000001 -1.102327 1.365430 22.290476 1.134429 -3.811488 33.138999 0.001331 0.136477 -1.119965 0.000000 0.000003 0.000003 4.025261 -7.587869 37.427920 0.798772 -3.240746 27.685578 -0.745227 0.190177 -1.407478 -0.000001 0.000000 -0.000005 7.059801 -9.819741 45.406500 0.650403 -2.941109 24.934553 0.002792 0.197390 -1.619971 -0.000001 0.000001 0.000001 -21.014518 1.765354 5.459515 40.214293 9.591754 1.079262 -16.685017 9.144653 -5.898194 -1.005521 0.000011 0.000001 0.000000 0.000002 0.000000 -23.078224 -11.433484 -7.402472 36.751803 -5.210261 -1.151126 -11.835240 -4.677991 6.361475 -0.000080 0.000009 0.000000 -0.000000 0.000002 0.000000 
-0.103537 191.471069 0.352437 -0.973230 -1.619710 -2.010854 1.499141 -0.262724 -0.018924 1.933455 -1.615383 0.136752 1.933007 -1.607579 0.183355 -0.225433 -0.474207 0.193236 4.021789 -2.701682 3.607578 -0.000000 0.000000 0.000000 -0.000000 0.000000 0.000000 -0.000000 0.000000 0.000000 0.378377 2.129808 -5.793614 8.081151 -13.447720 -67.065067 0.000002 -21.626658 0.000013 5.735105 -0.311553 0.948691 0.624509 2.893697 -21.630130 0.725494 3.081363 -26.491840 0.022458 0.556856 -4.619356 0.000002 0.000000 -0.000005 -3.006293 4.141886 12.995522 3.271582 20.940431 0.557899 -1.004634 0.837725 2.672953 0.000004 -0.000002 -0.000005 0.164950 1.502115 -12.076146 1.110442 3.754593 -32.941678 0.030248 0.646043 -5.361341 0.000000 0.000003 0.000001 2.039966 5.160671 -33.333232 0.380951 2.262671 -19.111496 0.012732 0.419391 -3.477473 0.000005 0.000001 0.000002 5.369016 8.457234 -42.833318 0.199603 -2.394169 -14.407333 0.003497 0.219621 -1.820144 -0.000003 -0.000000 0.000001 0.653431 6.305513 7.985283 -0.830966 2.713924 69.804950 -0.000002 25.075995 0.000000 0.711834 -4.197884 -4.487333 0.413196 -2.523488 28.253118 0.991175 -3.582970 30.917647 -0.663953 0.165683 -1.239523 -0.000001 0.000001 -0.000002 5.720236 -13.317297 1.149726 4.148264 -22.830648 0.226795 -1.880798 1.203202 -2.284465 0.000002 0.000002 0.000001 -1.131063 1.462127 22.170826 1.140136 -3.820175 33.224615 0.001288 0.134359 -1.102548 -0.000001 0.000002 -0.000000 3.909881 -7.491711 36.976496 0.793343 -3.230389 27.589398 -0.770730 0.190318 -1.403851 0.000001 -0.000000 0.000004 6.886114 -9.751562 44.794652 0.642677 -2.924457 24.783551 0.002797 0.197703 -1.622514 -0.000002 -0.000001 0.000001 -21.008282 1.753659 5.449151 40.260157 9.609036 1.080700 -16.723520 9.086831 -5.833610 -1.040474 -0.000001 -0.000001 -0.000000 0.000001 -0.000000 -23.060503 -11.451912 -7.415798 36.771341 -5.269873 -1.150941 -11.854084 -4.622170 6.380195 -0.000072 -0.000007 0.000001 -0.000000 -0.000002 -0.000000 
-0.107646 191.487015 0.367928 -0.968414 -1.551205 -2.009526 1.499142 -0.258460 -0.018961 1.927343 -1.607002 0.127239 1.926908 -1.599442 0.173785 -0.226557 -0.468364 0.188160 4.160951 -2.666068 3.569492 0.000000 0.000000 -0.000000 0.000000 0.000000 -0.000000 0.000000 0.000000 -0.000000 0.378143 2.129850 -5.787349 8.035137 -13.390144 -67.068544 0.000001 -21.656512 0.000016 5.722423 -0.408170 0.953977 0.601072 2.827910 -22.184354 0.724058 3.078474 -26.464949 0.019799 0.522864 -4.336916 0.000002 0.000002 -0.000002 -2.988615 4.245207 13.033717 3.281443 20.964337 0.559908 -0.986564 0.868435 2.666724 0.000000 0.000001 0.000001 0.164356 1.501478 -11.743300 1.136387 3.794245 -33.335677 0.031191 0.655912 -5.443580 -0.000003 -0.000001 -0.000001 1.992225 5.017295 -34.969093 0.361491 2.205739 -18.612189 0.007742 0.327196 -2.712399 0.000000 -0.000000 0.000002 5.389952 8.171795 -45.365085 0.173367 -2.499653 -13.507738 0.000481 0.082578 -0.684363 -0.000003 0.000002 0.000001 0.645780 6.330472 8.023651 -0.784179 2.701369 69.783189 0.000004 25.076005 -0.000016 0.696879 -4.194614 -4.510130 0.326934 -2.338118 27.619116 1.000325 -3.598192 31.063905 -0.667162 0.160724 -1.201963 0.000002 -0.000000 0.000003 5.632023 -13.171841 1.110304 4.169946 -22.891514 0.212141 -1.839677 1.127346 -2.270658 -0.000001 0.000001 0.000001 -1.162000 1.625873 21.768860 1.151276 -3.837097 33.391453 0.001204 0.129888 -1.065850 -0.000000 -0.000001 -0.000003 3.698332 -7.322635 36.015410 0.801096 -3.245157 27.726651 -0.776329 0.185973 -1.370785 -0.000000 0.000001 0.000004 6.562247 -9.629761 43.556383 0.650020 -2.940288 24.927127 0.002712 0.194608 -1.597149 -0.000002 -0.000001 0.000001 -20.997591 1.708748 5.445436 40.212240 9.597538 1.079738 -16.689120 9.068283 -5.876213 -1.016922 0.000009 0.000003 -0.000000 0.000001 -0.000000 -23.044860 -11.544216 -7.448892 36.740991 -5.274343 -1.149679 -11.852988 -4.583553 6.376864 -0.000000 0.000003 0.000001 0.000000 0.000000 -0.000000 
-0.105416 191.501648 0.387851 -0.942237 -1.464080 -2.007548 1.498423 -0.246205 -0.028234 1.908285 -1.595790 0.115639 1.907882 -1.588324 0.161975 -0.227007 -0.461247 0.188395 4.287124 -2.621590 3.541995 -0.000000 -0.000000 0.000000 -0.000000 -0.000000 0.000000 -0.000000 -0.000000 0.000000 0.377379 2.129984 -5.766740 7.971749 -13.319248 -67.069753 0.000006 -21.676662 0.000019 5.749361 -0.480805 0.949594 0.570980 2.752850 -22.418037 0.736203 3.102730 -26.690310 0.019687 0.521363 -4.324537 0.000001 0.000003 -0.000001 -2.994654 4.293358 13.100574 3.297400 21.006780 0.567345 -0.949418 0.931883 2.653977 0.000000 -0.000001 -0.000000 0.155723 1.463688 -11.245025 1.175107 3.852343 -33.916418 0.033600 0.680713 -5.650045 -0.000001 0.000000 0.000001 1.939068 4.904404 -36.094896 0.354909 2.186112 -18.440315 0.006088 0.290116 -2.404689 -0.000000 -0.000001 -0.000001 5.390412 7.974142 -47.221992 0.159788 -2.557179 -13.018738 0.000010 0.017717 -0.146810 0.000000 0.000001 -0.000001 0.633886 6.398131 8.088399 -0.716586 2.638921 69.727318 -0.000000 25.065068 0.000003 0.687989 -4.193404 -4.522719 0.236323 -2.129407 26.835970 1.012258 -3.617879 31.253385 -0.665789 0.154588 -1.156286 -0.000001 -0.000000 0.000004 5.532574 -13.020076 1.055574 4.193767 -22.960232 0.195743 -1.797612 1.053988 -2.258297 -0.000001 0.000002 -0.000001 -1.188571 1.797962 21.303719 1.163725 -3.855884 33.577138 0.001114 0.124911 -1.025059 0.000001 0.000002 -0.000002 3.451405 -7.122493 34.787977 0.813411 -3.268438 27.943363 -0.775911 0.180069 -1.327389 0.000000 -0.000000 0.000001 6.170746 -9.480277 41.952910 0.663001 -2.968028 25.178948 0.002593 0.190181 -1.560769 0.000001 0.000001 0.000000 -21.018664 1.688326 5.427379 40.187692 9.599607 1.086378 -16.677328 9.014892 -5.865327 -1.021605 0.000011 -0.000000 0.000000 0.000001 -0.000000 -23.046288 -11.640901 -7.501912 36.714415 -5.263208 -1.122675 -11.858276 -4.556736 6.363449 0.000017 0.000002 0.000002 0.000000 0.000000 0.000000 
-0.109098 191.535187 0.393553 -0.901428 -1.345322 -1.990800 1.490748 -0.230031 -0.037598 1.889427 -1.580002 0.103486 1.888907 -1.572654 0.149492 -0.214611 -0.447185 0.183565 4.378074 -2.554066 3.524988 -0.000001 0.000000 0.000000 -0.000001 0.000000 0.000000 -0.000001 0.000000 0.000000 0.376854 2.125738 -5.764198 7.890487 -13.216174 -67.039447 0.000004 -21.677963 -0.000016 5.844712 -0.531060 0.943763 0.522050 2.634695 -22.116144 0.769161 3.167325 -27.293004 0.023941 0.574990 -4.770236 0.000003 0.000002 -0.000002 -3.032390 4.283712 13.218451 3.311964 21.071844 0.579438 -0.896879 1.021722 2.636053 0.000000 0.000000 0.000000 0.136113 1.369347 -10.513862 1.232240 3.935772 -34.757634 0.038653 0.730073 -6.061256 -0.000000 -0.000000 0.000000 1.848783 4.775747 -36.313452 0.367968 2.224878 -18.779737 0.008738 0.347557 -2.881286 -0.000003 0.000001 -0.000001 5.302955 7.833982 -47.847729 0.164448 -2.537155 -13.188850 0.000434 0.077393 -0.641298 -0.000003 0.000001 0.000001 0.625811 6.488292 8.148326 -0.646987 2.551960 69.663087 0.000002 25.053457 -0.000012 0.696364 -4.188495 -4.522017 0.149624 -1.912683 25.959287 1.026499 -3.641204 31.478464 -0.655099 0.147556 -1.105276 0.000001 0.000000 -0.000000 5.435565 -12.884152 0.990501 4.212166 -23.017925 0.182379 -1.760420 0.990570 -2.247968 -0.000002 0.000004 -0.000001 -1.208029 1.965603 20.804276 1.176920 -3.875639 33.772844 0.001027 0.119784 -0.982936 0.000002 -0.000001 0.000000 3.190685 -6.903813 33.386907 0.829940 -3.299365 28.231933 -0.767038 0.172886 -1.275913 0.000000 -0.000000 -0.000001 5.745197 -9.308186 40.108093 0.681320 -3.006641 25.530581 0.002443 0.184611 -1.515058 0.000003 0.000001 -0.000001 -21.041892 1.667670 5.389027 40.117376 9.601347 1.106321 -16.632564 8.960567 -5.857992 -1.022902 0.000003 0.000001 -0.000000 0.000001 0.000000 -23.051593 -11.736159 -7.564516 36.656611 -5.282968 -1.100048 -11.842084 -4.535232 6.357899 -0.000069 -0.000002 0.000001 0.000000 -0.000002 -0.000000 
